PathFileType	3	(X/Y/Z)	dance_move_1__fused_aligned.trc
DataRate	CameraRate	NumFrames	NumMarkers	Units	OrigDataRate	OrigDataStartFrame	OrigNumFrames
100.0	100.0	7	19	mm	100.0	139	890
Frame#	Time	pelvis			neck			head			hip_left			hip_right			knee_left			knee_right			ankle_left			ankle_right			heel_left			heel_right			toe_left			toe_right			shoulder_left			shoulder_right			elbow_left			elbow_right			wrist_left			wrist_right			
		X1	Y1	Z1	X2	Y2	Z2	X3	Y3	Z3	X4	Y4	Z4	X5	Y5	Z5	X6	Y6	Z6	X7	Y7	Z7	X8	Y8	Z8	X9	Y9	Z9	X10	Y10	Z10	X11	Y11	Z11	X12	Y12	Z12	X13	Y13	Z13	X14	Y14	Z14	X15	Y15	Z15	X16	Y16	Z16	X17	Y17	Z17	X18	Y18	Z18	X19	Y19	Z19	
139	1.38000	109.848599	853.996091	53.509582	102.359396	1318.741986	-267.427538	96.185728	1351.332941	-439.426381	29.910476	852.085599	60.217761	189.786958	855.906573	46.801414	-116.807451	504.218743	-140.498263	291.594842	497.753202	-160.981996	-108.124140	143.673817	36.910263	301.255073	118.302938	-33.616723	-96.503340	103.017277	78.922540	296.649337	75.754487	7.264969	-164.225872	68.847306	-129.276946	322.090548	40.761446	-213.018758	-83.194152	1292.100828	-211.005334	285.622489	1258.236756	-226.439864	-169.915446	1009.773348	-156.514675	349.795291	965.026227	-197.798276	-158.309154	749.283062	-224.908235	358.072438	702.686325	-292.956883
140	1.39000	108.713584	850.829378	55.511188	100.866461	1314.222992	-267.125345	94.759529	1345.944604	-439.190003	28.822633	848.963588	62.216305	188.604772	852.695161	48.806084	-118.055293	503.363116	-141.784326	290.897606	497.219224	-162.742153	-109.386845	143.582529	36.625192	301.331911	118.632936	-34.107928	-97.879350	102.955274	78.714246	296.849129	76.205121	6.870226	-165.058317	69.146531	-129.695121	322.454797	41.165811	-213.344617	-84.655776	1287.394511	-210.937749	284.082794	1254.182378	-226.515494	-168.736908	1004.611570	-158.452633	346.781379	961.028658	-199.975053	-154.754638	745.322344	-227.203398	352.799371	699.847231	-295.323951
141	1.40000	107.578570	847.662665	57.512795	99.373527	1309.703998	-266.823151	93.333329	1340.556266	-438.953625	27.734789	845.841578	64.214849	187.422587	849.483748	50.810753	-119.303136	502.507489	-143.070388	290.200371	496.685246	-164.502309	-110.649551	143.491241	36.340121	301.408749	118.962933	-34.599133	-99.255360	102.893270	78.505953	297.048922	76.655754	6.475483	-165.890762	69.445755	-130.113296	322.819046	41.570176	-213.670477	-86.117400	1282.688193	-210.870164	282.543099	1250.128000	-226.591125	-167.558369	999.449792	-160.390590	343.767467	957.031090	-202.151831	-151.200121	741.361625	-229.498562	347.526305	697.008137	-297.691020
142	1.41000	106.443556	844.495952	59.514401	97.880592	1305.185004	-266.520957	91.907130	1335.167929	-438.717248	26.646946	842.719567	66.213393	186.240401	846.272335	52.815422	-120.550978	501.651862	-144.356451	289.503135	496.151269	-166.262466	-111.912256	143.399953	36.055051	301.485587	119.292930	-35.090337	-100.631370	102.831266	78.297660	297.248714	77.106388	6.080740	-166.723206	69.744979	-130.531471	323.183295	41.974541	-213.996336	-87.579024	1277.981875	-210.802579	281.003404	1246.073622	-226.666755	-166.379831	994.288014	-162.328548	340.753555	953.033521	-204.328608	-147.645605	737.400907	-231.793725	342.253238	694.169043	-300.058088
143	1.42000	105.308541	841.329239	61.516007	96.387657	1300.666010	-266.218764	90.480931	1329.779591	-438.480870	25.559103	839.597557	68.211937	185.058216	843.060923	54.820091	-121.798821	500.796235	-145.642513	288.805900	495.617291	-168.022623	-113.174962	143.308666	35.769980	301.562425	119.622928	-35.581542	-102.007379	102.769262	78.089366	297.448507	77.557021	5.685997	-167.555651	70.044203	-130.949645	323.547544	42.378906	-214.322196	-89.040649	1273.275557	-210.734994	279.463709	1242.019244	-226.742386	-165.201292	989.126236	-164.266506	337.739643	949.035952	-206.505385	-144.091088	733.440189	-234.088888	336.980171	691.329949	-302.425157
144	1.43000	104.173527	838.162526	63.517614	94.894722	1296.147016	-265.916570	89.054732	1324.391254	-438.244492	24.471260	836.475547	70.210481	183.876030	839.849510	56.824761	-123.046664	499.940608	-146.928576	288.108664	495.083314	-169.782779	-114.437668	143.217378	35.484909	301.639264	119.952925	-36.072746	-103.383389	102.707258	77.881073	297.648299	78.007655	5.291253	-168.388096	70.343427	-131.367820	323.911794	42.783270	-214.648055	-90.502273	1268.569239	-210.667409	277.924014	1237.964866	-226.818016	-164.022754	983.964459	-166.204464	334.725731	945.038383	-208.682163	-140.536572	729.479470	-236.384052	331.707104	688.490855	-304.792225
145	1.44000	103.038513	834.995813	65.519220	93.401787	1291.628022	-265.614377	87.628533	1319.002916	-438.008115	23.383417	833.353536	72.209024	182.693845	836.638097	58.829430	-124.294506	499.084981	-148.214638	287.411429	494.549336	-171.542936	-115.700373	143.126090	35.199838	301.716102	120.282922	-36.563951	-104.759399	102.645254	77.672779	297.848092	78.458288	4.896510	-169.220540	70.642651	-131.785995	324.276043	43.187635	-214.973915	-91.963897	1263.862921	-210.599824	276.384319	1233.910489	-226.893647	-162.844215	978.802681	-168.142422	331.711819	941.040815	-210.858940	-136.982055	725.518752	-238.679215	326.434037	685.651761	-307.159293
